<?xml version="1.0" encoding="UTF-8" standalone="no"?>
<!DOCTYPE svg PUBLIC "-//W3C//DTD SVG 1.0//EN" "http://www.w3.org/TR/2001/PR-SVG-20010719/DTD/svg10.dtd">
<svg width="23cm" height="13cm" viewBox="118 278 443 243" xmlns="http://www.w3.org/2000/svg" xmlns:xlink="http://www.w3.org/1999/xlink">
  <g id="Background">
    <g>
      <rect style="fill: #ffd282; fill-opacity: 1; stroke-opacity: 1; stroke-width: 2; stroke: #000000" x="120" y="280" width="180" height="80" rx="10" ry="10"/>
      <text font-size="22.5778" style="fill: #000000; fill-opacity: 1; stroke: none;text-anchor:middle;font-family:sans-serif;font-style:normal;font-weight:700" x="210" y="326.889">
        <tspan x="210" y="326.889">Module A</tspan>
      </text>
    </g>
    <g>
      <rect style="fill: #ffd282; fill-opacity: 1; stroke-opacity: 1; stroke-width: 2; stroke: #000000" x="380" y="280" width="180" height="80" rx="10" ry="10"/>
      <text font-size="22.5778" style="fill: #000000; fill-opacity: 1; stroke: none;text-anchor:middle;font-family:sans-serif;font-style:normal;font-weight:700" x="470" y="326.889">
        <tspan x="470" y="326.889">Module B</tspan>
      </text>
    </g>
    <g>
      <rect style="fill: #ffd282; fill-opacity: 1; stroke-opacity: 1; stroke-width: 2; stroke: #000000" x="240" y="440" width="180" height="80" rx="10" ry="10"/>
      <text font-size="22.5778" style="fill: #000000; fill-opacity: 1; stroke: none;text-anchor:middle;font-family:sans-serif;font-style:normal;font-weight:700" x="330" y="486.889">
        <tspan x="330" y="486.889">Module C</tspan>
      </text>
    </g>
    <g>
      <line style="fill: none; stroke-opacity: 1; stroke-width: 2; stroke: #63ee1a" x1="300" y1="340" x2="370.264" y2="340"/>
      <polygon style="fill: #63ee1a; fill-opacity: 1; stroke-opacity: 1; stroke-width: 2; stroke: #63ee1a" fill-rule="evenodd" points="377.764,340 367.764,345 370.264,340 367.764,335 "/>
    </g>
    <g>
      <line style="fill: none; stroke-opacity: 1; stroke-width: 2; stroke: #63ee1a" x1="420" y1="360" x2="366.515" y2="431.313"/>
      <polygon style="fill: #63ee1a; fill-opacity: 1; stroke-opacity: 1; stroke-width: 2; stroke: #63ee1a" fill-rule="evenodd" points="362.015,437.313 364.015,426.313 366.515,431.313 372.015,432.313 "/>
    </g>
    <g>
      <line style="fill: none; stroke-opacity: 1; stroke-width: 2; stroke-dasharray: 20; stroke: #df1818" x1="330" y1="440" x2="267.889" y2="369.269"/>
      <polygon style="fill: #df1818; fill-opacity: 1; stroke-opacity: 1; stroke-width: 2; stroke: #df1818" fill-rule="evenodd" points="262.94,363.633 273.296,367.848 267.889,369.269 265.782,374.447 "/>
    </g>
    <g>
      <line style="fill: none; stroke-opacity: 1; stroke-width: 2; stroke-dasharray: 20; stroke: #df1818" x1="220" y1="360" x2="285.931" y2="431.925"/>
      <polygon style="fill: #df1818; fill-opacity: 1; stroke-opacity: 1; stroke-width: 2; stroke: #df1818" fill-rule="evenodd" points="290.999,437.453 280.556,433.46 285.931,431.925 287.927,426.703 "/>
    </g>
    <g>
      <line style="fill: none; stroke-opacity: 1; stroke-width: 2; stroke-dasharray: 20; stroke: #df1818" x1="400" y1="440" x2="452.694" y2="369.742"/>
      <polygon style="fill: #df1818; fill-opacity: 1; stroke-opacity: 1; stroke-width: 2; stroke: #df1818" fill-rule="evenodd" points="457.194,363.742 455.194,374.742 452.694,369.742 447.194,368.742 "/>
    </g>
    <g>
      <line style="fill: none; stroke-opacity: 1; stroke-width: 2; stroke-dasharray: 20; stroke: #df1818" x1="378.998" y1="320" x2="310.738" y2="320"/>
      <polygon style="fill: #df1818; fill-opacity: 1; stroke-opacity: 1; stroke-width: 2; stroke: #df1818" fill-rule="evenodd" points="303.238,320 313.238,315 310.738,320 313.238,325 "/>
    </g>
  </g>
</svg>
